<svg xmlns="http://www.w3.org/2000/svg" viewBox="0 0 170 28.812"><defs><style>.a{fill:#fff;fill-rule:evenodd;}</style></defs><path class="a" d="M4.031.439H0V12.052H10.216A10.2,10.2,0,0,1,20.272,3.871,10.536,10.536,0,1,1,10.016,16.2H0V28.373H4.031v-8.3H7.263a14.119,14.119,0,0,0,13.089,8.739A14.406,14.406,0,1,0,7.343,8.181H4.031V.439ZM20.671,8.181v3.791a2.442,2.442,0,1,0,0,4.869v3.791a6.225,6.225,0,1,1,0-12.451Zm32.683,0H51.439V.439H38.749V28.373h4.031V4.31h4.629v7.742h5.946V8.181ZM47.408,16.2h5.946v8.3h4.629V.439h4.031V28.373H49.324v-8.3H47.408V16.2ZM70.035.439H66v18.8c0,6.465,4.27,9.577,8.859,9.577a5.187,5.187,0,0,0,3.831-1.237V23.664a3.77,3.77,0,0,1-3.073,1.277c-3.312,0-5.587-2.195-5.587-6.265V.439Zm17.319,0V28.373H83.324V4.31H78.695V18.317a2.142,2.142,0,0,1-2.115,2.315c-.838,0-1.915-.6-1.915-2.315V.439Zm3.991,0V28.373h12.69V19.434c0-.519.04-2.594-2.075-2.594-1.876,0-1.955,1.915-1.955,2.594V24.5H95.376V.439Zm16.681,0h4.829L106.23,9.7c6.664.918,6.465,7.383,6.465,10.775v7.9h-4.031v-8.38c0-2.634-.2-7.3-5.866-7.3a5.292,5.292,0,0,0-3.232,1.117L108.026.439Zm8.42,13.808a14.426,14.426,0,1,0,28.852.16,14.427,14.427,0,0,0-28.852-.16ZM130.852,3.871a10.536,10.536,0,0,1,0,21.07,10.381,10.381,0,0,1-10.376-10.5A10.375,10.375,0,0,1,130.852,3.871Zm.16,4.31v3.791a2.442,2.442,0,1,0,0,4.869v3.791a6.225,6.225,0,1,1,0-12.451ZM149.289.439V4.31h9.139c1.317,0,7.542.08,7.542,6.106,0,3.631-2.474,6.066-6.585,6.066h-1.477v3.871h1.4c7.7,0,10.695-5.667,10.695-9.977,0-4.031-2.594-9.937-11.692-9.937h-9.019Zm0,8.021H159.7a1.883,1.883,0,0,1,1.955,1.955,1.858,1.858,0,0,1-1.876,1.915h-6.465V28.373h-4.031Z"/></svg>